PathFileType	4	(X/Y/Z)	C:\Users\°ÂÌØÂü\Desktop\20210112\bx_n_0_902-Unnamed.trc
DataRate	CameraRate	NumFrames	NumMarkers	Units	OrigDataRate	OrigDataStartFrame	OrigNumFrames
50.00	50.00	       8	0	mm	50.00	209	       416
Frame#	Time	
		

209	4.160	-62.15096	111.20041	1081.67322	-818.75177	250.40573	565.23596	-354.47778	269.93506	1020.54474	-744.22156	216.55077	791.78394	-748.17432	-8.45000	801.28870	-345.84753	-80.73796	1007.23389	-827.64581	281.00507	731.89813	-676.78174	51.81834	161.58730	-751.28687	15.23660	523.40436	-841.86792	259.09467	622.35144	-729.87842	65.01389	219.46805	-759.88989	204.37015	535.49805	-839.69995	263.99640	485.13525	-517.84052	-72.83232	143.36763	-550.12805	-21.12768	162.73146	-796.24426	33.02467	172.79175	-794.58069	71.10097	563.98676	-601.26501	30.50710	165.92757				-798.01129	184.72665	181.36794	-769.25446	230.56952	202.23811	-590.77130	207.02042	173.09605	-882.61469	296.14063	144.70148	-553.98291	240.65036	165.81564	-651.99872	291.23779	156.82913	-614.73999	297.03049	158.44981	-528.20947	303.76297	146.62212	-790.93341	143.53404	567.95715	-837.13794	-77.79193	861.41833	-830.38666	-51.73973	473.97873	-764.02325	-24.63402	203.59277	-875.88751	-78.54328	141.29303				-829.05243	-71.73807	744.85675	-811.31085	-39.02562	606.73450	-808.80585	-36.95544	560.71790	-722.42731	154.77101	221.49731	-677.14386	169.00473	161.81181	-605.48291	-71.67718	157.04408	-647.12531	-66.89198	161.99092																-851.90991	287.21051	867.16150				-896.32465	87.40982	1110.62183	
210	4.180	-62.33651	111.66640	1076.62854	-818.97217	250.49353	565.32129	-355.10956	270.15759	1016.71771	-744.67749	216.81317	791.59210	-748.56665	-8.28949	801.06897	-346.06241	-80.96857	1004.00269	-828.15900	281.21747	731.59387	-677.02185	51.70340	161.78036	-751.94470	15.53036	523.34467	-842.07935	259.04245	622.12665	-729.87842	65.01389	219.46805	-760.30200	204.40144	535.52216	-840.03192	264.43088	485.10272	-517.69043	-73.07559	143.18117	-550.17218	-21.23106	162.74026	-796.38202	33.03324	172.84047	-794.95044	71.49614	563.51819	-601.31189	30.43203	166.08815				-798.08691	184.61592	181.30379	-769.24738	230.94460	202.29126	-590.77130	207.02042	173.09605	-882.60846	295.94492	144.62254	-553.97125	240.55197	165.59059	-652.05823	291.57037	156.74622	-614.81946	296.93469	158.53418	-528.06989	303.94467	146.36400	-791.38263	143.95850	567.79938	-837.67694	-77.35329	861.29150	-830.75250	-51.71414	474.30457	-764.02655	-24.55486	203.44604	-875.78168	-78.53422	141.12122				-829.42950	-71.50591	744.78894	-811.62500	-38.94840	606.56238	-808.91260	-36.84336	560.91187	-722.43939	154.89134	221.51358	-676.79401	168.94235	161.43584	-605.49500	-71.75808	157.16019	-647.13239	-66.69604	161.95277																-852.56586	287.27649	867.18451				-896.34100	87.67007	1110.38354	
211	4.200	-62.61053	111.99454	1071.58447	-819.28271	250.71783	565.17767	-355.36923	270.62094	1013.55042	-745.18640	217.26894	791.93958	-748.63965	-8.43993	801.40173	-346.81213	-79.78622	999.53613	-828.65192	281.42972	731.43805	-677.13806	51.82000	161.69453	-751.96210	15.76458	523.13464	-842.50940	259.66235	622.09467	-729.61578	65.63624	219.77449	-760.61145	204.59245	535.64227	-840.06470	264.67734	484.99414	-517.74200	-73.08585	143.36119	-550.18085	-21.05928	162.73953	-796.26831	33.10120	172.65907	-795.11700	71.85738	563.69305	-601.42938	30.54456	166.04784				-798.16382	184.73131	181.36780	-769.28424	230.82587	202.14526	-590.80518	207.24435	173.30627	-882.61310	296.09235	144.79472	-554.09210	240.53964	165.69244	-652.05823	291.57037	156.74622	-614.76416	297.00473	158.54582	-528.05621	303.99036	146.51204	-791.83154	144.06020	567.78241	-837.94800	-77.25432	861.25519	-830.90179	-51.67463	474.24643	-764.02167	-24.84638	203.55365	-875.80023	-78.62018	141.04199				-829.92529	-71.27444	744.74677	-811.80426	-38.84521	606.41382	-809.37787	-36.36967	560.44165	-722.49481	154.70123	221.72974	-677.19159	168.71613	161.88609	-605.50165	-71.70354	157.34441	-647.12531	-66.89198	161.99092																-853.02216	287.71414	867.11389				-896.43915	88.11191	1110.63611	
212	4.220	-62.71308	112.52406	1067.44934	-819.76343	251.20906	565.17310	-355.04333	271.53082	1011.05396	-745.66779	217.64716	792.19000	-749.44763	-7.62190	800.95972	-347.14548	-79.48423	996.93945	-829.07867	282.05356	731.39856	-677.13806	51.82000	161.69453	-751.83618	15.93108	523.48431	-842.80865	259.83725	622.10150	-729.78101	65.29489	219.32381	-761.01465	204.71056	535.54767	-840.24396	264.80029	485.08682	-517.63141	-72.98607	143.30165	-550.16290	-20.92931	162.81953	-796.37347	33.14028	172.68036	-795.25958	72.13687	563.92511	-601.26501	30.50710	165.92757				-798.06201	184.69376	181.32410	-769.31976	230.94705	202.22960	-590.80518	207.24435	173.30627	-882.63416	295.95218	144.56110	-553.86829	240.48807	165.66977	-652.05536	291.51117	156.83925	-614.73999	297.03049	158.44981	-528.06122	303.92389	146.54381	-792.09387	143.90051	567.85034	-838.37946	-76.93005	861.35132	-830.94989	-51.55282	474.24304	-764.12787	-24.72137	203.57867	-875.79388	-78.47688	141.16841				-830.09003	-71.27215	744.65387	-812.15198	-38.67070	606.37451	-809.25830	-36.48062	560.79669	-722.66290	154.73276	221.49963	-677.09766	168.87231	161.77541	-605.62012	-71.68283	157.40744	-647.11279	-66.63877	162.00508																-853.64026	287.93481	866.86108				-896.49207	88.21710	1110.51965	
213	4.240	-62.97872	112.90401	1063.16589	-819.97168	251.33578	565.05853	-355.05603	271.88855	1008.62195	-745.92328	217.85971	792.20374	-749.69446	-7.20171	801.09161	-347.57944	-79.61069	994.34326	-829.63519	282.10727	731.17444	-677.25940	51.99200	161.99300	-751.81647	16.12882	523.45129	-843.61743	260.45743	622.22540	-730.34607	65.20479	219.33830	-761.62366	205.11456	535.34247	-840.64160	264.97330	484.98059	-517.73401	-72.89334	143.30498	-550.30859	-21.01438	162.79196	-796.47913	33.15535	172.54025	-795.33374	72.40294	564.08252	-601.42938	30.54456	166.04784				-798.18311	184.79131	181.07144	-769.56561	230.95189	202.26396	-590.82208	207.18829	173.15471	-882.60706	296.18478	144.78162	-554.09210	240.53964	165.69244	-652.05823	291.57037	156.74622	-614.78680	297.03113	158.60422	-528.02594	303.96426	146.62828	-792.76233	143.92871	567.79742	-838.40186	-76.86077	861.34961	-830.64832	-51.10180	474.02444	-763.77319	-24.77739	203.92258	-875.95935	-78.64118	141.24994				-830.12830	-70.95249	744.59857	-812.09137	-38.38847	606.33795	-809.15588	-36.01557	560.62427	-722.86359	154.83064	221.87682	-677.30670	168.73477	161.78743	-605.51874	-71.64590	157.37761	-647.13501	-66.76297	162.30956																-854.05981	288.38977	866.85870				-896.50970	88.48406	1110.42346	
214	4.260	-62.98787	113.44601	1059.46790	-820.10999	251.46754	564.90558	-356.29922	272.07791	1005.93213				-749.86322	-6.85887	801.45087	-348.02039	-78.69246	991.75403	-829.92920	282.19492	731.16290	-676.99176	51.95681	161.59767	-751.61346	16.25443	523.62787	-843.86237	260.37378	622.01019	-729.70593	65.93963	220.10068	-761.90814	205.15834	535.40131	-841.23419	265.23938	485.11862	-517.84033	-72.87235	143.20187	-550.21515	-20.99017	162.89970	-796.49146	33.19600	172.61517	-795.11029	72.64922	564.04236	-601.42194	30.62720	165.93314				-798.05402	184.84756	181.15825	-769.36908	231.03445	202.13403	-590.76489	207.12607	173.22461	-882.68152	296.13113	144.69922	-553.97009	240.63959	166.01457	-651.96222	291.50568	156.78575	-614.65143	297.06619	158.61569	-528.05280	303.98654	146.66963	-793.13220	144.18546	567.63141	-838.46198	-76.80304	861.26031	-830.69714	-50.80533	474.03854	-764.00867	-24.32076	203.40488	-876.09662	-78.84725	141.46336				-829.97162	-70.90968	744.70233	-811.50433	-37.81867	606.82635	-808.80865	-35.67356	560.73029	-722.97864	154.75578	221.52190	-677.22607	168.73087	161.85612	-605.40240	-71.51773	157.41977	-647.06470	-66.60297	162.07449																-854.07507	289.02197	867.35156				-896.43860	88.85080	1110.56421	
215	4.280	-62.92563	113.47707	1056.32007	-820.32587	251.39299	564.78387	-356.64099	272.45990	1003.65991	-747.67603	216.27165	791.13110	-750.02924	-6.38927	801.64209	-348.13779	-78.79163	989.61884	-830.39783	282.36899	730.97339	-677.10797	52.07336	161.51178	-751.26929	16.50731	523.80023	-844.13458	260.40109	621.91620	-729.72943	65.55083	219.45715	-762.01294	205.25656	535.23309	-841.32446	265.31577	485.06387	-517.74200	-73.08585	143.36119	-550.34961	-20.99757	162.75949	-796.52515	33.19277	172.72520	-794.84222	72.69717	564.12000	-601.25031	30.58302	165.81850				-798.21173	184.72673	181.15840	-769.36353	231.09543	202.09470	-590.83221	207.23448	173.20905	-882.72913	296.12903	144.66736	-554.11322	240.55873	165.90965	-652.01691	291.50522	156.58868	-614.87537	296.99542	158.43832	-528.15607	303.86719	146.43192	-793.12927	144.30655	567.70752	-838.53003	-76.56164	861.31860	-830.30743	-50.60184	474.24142	-763.81958	-24.44703	203.66402	-875.94281	-78.74004	141.14670				-829.84540	-70.63738	744.74164	-811.34412	-37.79041	607.04938	-808.67786	-35.73881	560.89954	-722.90472	154.79517	221.63176	-677.26294	168.88499	162.14949	-605.37616	-71.26496	157.64871	-647.01202	-66.51056	162.15294																-854.87738	289.10730	866.97986				-896.55408	89.02919	1110.52869	
216	4.300	-63.10790	113.94979	1052.97620	-820.70428	251.85797	564.76770	-356.07431	273.05228	1001.84625	-748.04987	216.21083	790.80988	-749.90912	-5.87866	801.74878	-348.99429	-78.52560	987.41217	-830.65289	282.68604	731.08826	-677.10797	52.07336	161.51178	-751.26929	16.50731	523.80023	-844.30756	260.32794	621.69409	-729.64722	66.24827	220.10349	-762.11908	205.23183	535.16498	-841.48828	265.36417	484.98285	-517.75195	-73.00916	143.28241	-550.05817	-20.96522	162.80075	-796.50946	33.23152	172.78746	-795.01062	72.80099	564.02350	-601.21790	30.63443	165.73395				-798.25702	184.90378	181.13733	-769.42804	230.98315	201.80197	-590.81262	207.22363	173.36316	-882.70935	296.11417	144.63217	-554.10278	240.62761	165.80806	-651.99597	291.43616	156.98338	-614.82007	297.06546	158.44998	-528.08093	304.04608	146.60199	-793.46075	144.40417	567.56763	-838.61292	-76.39059	861.40961	-830.21674	-50.56450	474.24112	-763.86517	-24.38325	203.79172	-875.99792	-78.69180	141.55168				-829.81384	-70.27376	744.74103	-811.27222	-37.59146	606.92267	-808.76160	-35.70094	560.81714	-722.97864	154.75578	221.52190	-677.29272	168.93243	161.81337	-605.32635	-71.40186	157.38411	-647.01324	-66.55450	162.39104																-855.07098	289.18030	866.80731				-896.52075	89.06998	1110.37402	
